<svg width="31" height="17" viewBox="0 0 31 17" fill="none" xmlns="http://www.w3.org/2000/svg">
<path d="M21.5476 0.841876C21.4464 0.942261 21.3661 1.06169 21.3113 1.19328C21.2564 1.32487 21.2282 1.46601 21.2282 1.60856C21.2282 1.75111 21.2564 1.89225 21.3113 2.02384C21.3661 2.15543 21.4464 2.27486 21.5476 2.37525L26.5149 7.34251H1.09546C0.809073 7.34251 0.534412 7.45628 0.331903 7.65879C0.129393 7.8613 0.015625 8.13596 0.015625 8.42235C0.015625 8.70874 0.129393 8.9834 0.331903 9.18591C0.534412 9.38842 0.809073 9.50219 1.09546 9.50219H26.4933L21.5476 14.4371C21.3465 14.6394 21.2336 14.9131 21.2336 15.1983C21.2336 15.4836 21.3465 15.7573 21.5476 15.9596C21.7499 16.1607 22.0236 16.2736 22.3089 16.2736C22.5942 16.2736 22.8679 16.1607 23.0702 15.9596L29.938 9.09185C30.0304 9.00316 30.104 8.8967 30.1542 8.77886C30.2045 8.66103 30.2304 8.53425 30.2304 8.40615C30.2304 8.27805 30.2045 8.15127 30.1542 8.03344C30.104 7.9156 30.0304 7.80914 29.938 7.72045L23.081 0.841876C22.9806 0.740664 22.8612 0.66033 22.7296 0.605508C22.598 0.550686 22.4569 0.522461 22.3143 0.522461C22.1718 0.522461 22.0306 0.550686 21.899 0.605508C21.7674 0.66033 21.648 0.740664 21.5476 0.841876Z" fill="#F4A16E"/>
</svg>
