<?xml version="1.0" ?><svg data-name="Layer 1" id="Layer_1" viewBox="0 0 512 512" xmlns="http://www.w3.org/2000/svg"><path d="M493.3,164.37c0-.16-.11-.28-.14-.43a5.35,5.35,0,0,0-.32-1,4.26,4.26,0,0,0-1.12-1.69,5.83,5.83,0,0,0-.8-.69,5.67,5.67,0,0,0-.95-.49,6.09,6.09,0,0,0-.94-.31c-.16,0-.3-.13-.47-.15-4.1-.51-88.44-9.9-154.94,32.41C308.18,135.59,262,98.68,259.35,96.58a5.44,5.44,0,0,0-6.7,0c-2.68,2.1-48.83,39-74.26,95.46-66.52-42.32-150.88-32.92-154.95-32.41a3.53,3.53,0,0,0-.46.15,5.08,5.08,0,0,0-.93.31,4.76,4.76,0,0,0-1,.5,5.14,5.14,0,0,0-.75.65,5.59,5.59,0,0,0-.68.78,5.3,5.3,0,0,0-.47.92,5.1,5.1,0,0,0-.33,1c0,.15-.12.27-.14.43-.57,4.68-13.14,115.3,54.65,183.09,27.49,27.49,56.43,35.79,81.38,35.79,30.29,0,54.66-12.24,63.36-17.24a137.15,137.15,0,0,0,32.47,14v31.12a5.44,5.44,0,0,0,10.88,0V380a137,137,0,0,0,32.48-14c8.7,5,33.05,17.24,63.35,17.24,25,0,53.9-8.31,81.38-35.79C506.44,279.67,493.87,169.05,493.3,164.37ZM81,339.77C24.29,283,27.56,191,29.12,170c18.14-1.34,89.35-3.77,145,32.22-7.37,19-12.26,40-12.26,62.43a130.43,130.43,0,0,0,4.59,35l-34.2-34.2V213.29a5.44,5.44,0,0,0-10.88,0v41.28L88.06,221.29A5.44,5.44,0,0,0,80.37,229l33.28,33.28H72.37a5.44,5.44,0,1,0,0,10.88h52.16l42.65,42.65H125.9a5.44,5.44,0,0,0,0,10.88h52a111.23,111.23,0,0,0,29.93,32.63C188,369.72,132.5,391.22,81,339.77ZM261.44,324l36.88-36.88a5.44,5.44,0,1,0-7.69-7.7l-29.19,29.19V248.32l36.88-36.88a5.44,5.44,0,1,0-7.69-7.69l-29.19,29.19V185.88a5.44,5.44,0,0,0-10.88,0v47.06l-29.19-29.19a5.44,5.44,0,0,0-7.69,7.69l36.88,36.88v60.32l-29.19-29.19a5.44,5.44,0,1,0-7.69,7.7L250.56,324v44.68c-19.62-5.94-77.86-29.8-77.86-104C172.7,184.5,240,121.7,256,108c16,13.75,83.3,76.55,83.3,156.74,0,75.14-58.12,98.36-77.86,104.09ZM431,339.77c-51.45,51.44-107,30-126.81,19.53a111.5,111.5,0,0,0,29.93-32.63h52a5.44,5.44,0,0,0,0-10.88H344.82l42.65-42.65h52.16a5.44,5.44,0,1,0,0-10.88H398.35L431.63,229a5.44,5.44,0,0,0-7.69-7.69l-33.28,33.28V213.29a5.44,5.44,0,1,0-10.88,0v52.16l-34.19,34.19a130.76,130.76,0,0,0,4.59-34.95c0-22.47-4.89-43.39-12.26-62.43,55.62-36,126.82-33.57,145-32.22C484.44,190.93,487.71,283,431,339.77Z"/></svg>