<?xml version="1.0" standalone="no"?>
<!DOCTYPE svg PUBLIC "-//W3C//DTD SVG 20010904//EN"
 "http://www.w3.org/TR/2001/REC-SVG-20010904/DTD/svg10.dtd">
<svg version="1.0" xmlns="http://www.w3.org/2000/svg"
 width="50.000000pt" height="50.000000pt" viewBox="0 0 50.000000 50.000000"
 preserveAspectRatio="xMidYMid meet">

<g transform="translate(0.000000,50.000000) scale(0.100000,-0.100000)"
fill="#000000" stroke="none">
<path d="M50 436 c0 -50 59 -125 114 -147 42 -17 86 -59 86 -83 0 -19 0 -19
-22 2 -47 43 -120 55 -158 24 l-22 -18 101 -69 c56 -38 101 -75 101 -82 0 -7
7 -13 15 -13 8 0 15 8 15 18 0 23 43 63 93 85 40 18 77 68 77 105 0 17 -6 22
-27 22 -56 0 -92 -34 -117 -112 -10 -33 -26 -18 -26 25 0 40 5 47 85 127 65
64 82 87 73 97 -12 15 -66 17 -101 4 -33 -13 -80 -65 -93 -103 l-11 -33 -17
40 c-21 50 -61 93 -103 111 -42 18 -63 18 -63 0z"/>
</g>
</svg>
