<?xml version="1.0" standalone="no"?>
<!DOCTYPE svg PUBLIC "-//W3C//DTD SVG 20010904//EN"
 "http://www.w3.org/TR/2001/REC-SVG-20010904/DTD/svg10.dtd">
<svg version="1.0" xmlns="http://www.w3.org/2000/svg"
 width="48.000000pt" height="48.000000pt" viewBox="0 0 48.000000 48.000000"
 preserveAspectRatio="xMidYMid meet">

<g transform="translate(0.000000,48.000000) scale(0.100000,-0.100000)"
fill="#000000" stroke="none">
<path d="M110 440 c-8 -5 -23 -11 -33 -14 -27 -8 -39 -54 -32 -115 6 -44 14
-62 40 -88 18 -18 40 -33 48 -33 10 0 16 -16 20 -51 8 -68 28 -96 78 -109 80
-22 143 8 160 75 6 24 17 50 25 56 17 14 18 61 2 77 -15 15 -61 15 -76 0 -17
-17 -15 -63 3 -78 16 -13 20 -57 7 -77 -22 -35 -114 -39 -147 -7 -22 22 -21
114 1 114 9 0 31 15 49 33 26 26 34 44 40 88 7 61 -5 107 -32 115 -10 3 -26
10 -37 16 -23 12 -39 -2 -34 -28 3 -15 11 -18 36 -16 l32 3 0 -66 c0 -83 -25
-115 -90 -115 -65 0 -90 32 -90 115 l0 66 33 -3 c28 -3 32 0 32 21 0 27 -12
34 -35 21z"/>
</g>
</svg>
