<?xml version="1.0" encoding="UTF-8"?>
<!DOCTYPE svg PUBLIC "-//W3C//DTD SVG 1.1//EN" "http://www.w3.org/Graphics/SVG/1.1/DTD/svg11.dtd">
<!-- Creator: CorelDRAW X8 -->
<svg xmlns="http://www.w3.org/2000/svg" xml:space="preserve" width="282.222mm" height="282.222mm" version="1.1" style="shape-rendering:geometricPrecision; text-rendering:geometricPrecision; image-rendering:optimizeQuality; fill-rule:evenodd; clip-rule:evenodd"
viewBox="0 0 28222 28222"
 xmlns:xlink="http://www.w3.org/1999/xlink">
 <defs>
  <style type="text/css">
   <![CDATA[
    .fil1 {fill:#FEFEFE}
    .fil0 {fill:#00CCFF}
   ]]>
  </style>
 </defs>
 <g id="Layer_x0020_1">
  <metadata id="CorelCorpID_0Corel-Layer"/>
  <path class="fil0" d="M15716 10419c479,-51 945,-302 1348,-743 63,-76 75,-151 63,-239 541,-655 869,-1549 869,-2242 0,-1070 -504,-1184 -1360,-1360l0 -13c-63,-100 -164,-163 -290,-163 -176,0 -315,138 -315,302 0,164 139,302 315,302 76,0 139,-25 189,-75l12 12c832,176 1046,214 1046,995 0,605 -302,1423 -781,2015 -75,0 -151,25 -214,88 -239,265 -629,579 -1083,579 -466,0 -843,-314 -1083,-566 -63,-63 -139,-101 -214,-101 -478,-592 -793,-1410 -793,-2015 0,-781 226,-819 1057,-995l0 -12c51,50 126,75 202,75 176,0 315,-138 315,-302 0,-164 -139,-302 -315,-302 -138,0 -239,63 -290,163l-12 0c-844,189 -1360,290 -1360,1373 0,693 327,1587 881,2254 -12,76 0,164 63,227 403,428 857,680 1323,743l-14 1359c0,932 -818,1688 -1813,1688 -994,0 -1800,-756 -1800,-1688l0 -1195c579,-89 1020,-542 1020,-1109 0,-629 -554,-1133 -1235,-1133 -667,0 -1220,504 -1220,1133 0,567 453,1020 1019,1109l0 1195c0,1134 995,2053 2216,2053 1235,0 2229,-919 2229,-2053l0 -1359 25 0z"/>
  <path class="fil1" d="M11447 10230l0 0c454,0 819,-340 819,-756 0,-428 -365,-755 -819,-755 -440,0 -806,327 -806,755 0,416 366,756 806,756l0 0z"/>
  <path class="fil0" d="M11435 8908l0 0c327,0 592,251 592,566 0,315 -265,580 -592,580 -340,0 -591,-265 -591,-580 0,-315 251,-566 591,-566l0 0z"/>
 </g>
</svg>
